# xmcd
#
# Track frame offsets: 
#        150
#        18445
#        35489
#        54817
#        80131
#        91326
#        105933
#        124803
#        145384
#        162809
#        177083
#        195953
#        208540
#
# Disc length: 3009 seconds
#
# Revision: 0
# Processed by: cddbd v1.5.1PL2 Copyright (c) Steve Scherf et al.
# Submitted via: ExactAudioCopy v0.95b4
#
DISCID=9f0bbf0d
DTITLE=Rene Miller's Wedding Band  - Our Very Best Vol. 1
DYEAR=1900
DGENRE=
TTITLE0=Les Copains D'abord
TTITLE1=The Muskrat Ramble
TTITLE2=Just A Closer Walk With Thee
TTITLE3=Saint James Infirmary
TTITLE4=Baby Doll
TTITLE5=Baby Won't You Please Come Home
TTITLE6=I Want A Little Girl
TTITLE7=Standing in the Shadow of Love
TTITLE8=What's the Matter with Love
TTITLE9=Arkansas
TTITLE10=La Vie en Rose
TTITLE11=Almost Like Being in Love
TTITLE12=The Glory of Love
EXTD=
EXTT0=
EXTT1=
EXTT2=
EXTT3=
EXTT4=
EXTT5=
EXTT6=
EXTT7=
EXTT8=
EXTT9=
EXTT10=
EXTT11=
EXTT12=
PLAYORDER=
